<svg xmlns="http://www.w3.org/2000/svg" width="1280" height="366" style="background:#fff;font-family:Arial,Helvetica,sans-serif">
<rect x="0" y="0" width="1280" height="366" fill="#fff"/>
<text x="18.0" y="23.0" font-size="14" font-weight="bold" text-anchor="start" fill="#171717">arbitrary_demo_contig • Tn3-like 31700..36647 • view 26700..41647</text>
<rect x="18" y="34" width="1244" height="30" fill="#eeeeec" stroke="#c9c9c6"/>
<text x="26.0" y="54.0" font-size="11" font-weight="bold" text-anchor="start" fill="#171717">Position</text>
<text x="178.0" y="54.0" font-size="11" font-weight="bold" text-anchor="start" fill="#171717">Name*</text>
<text x="528.0" y="54.0" font-size="11" font-weight="bold" text-anchor="start" fill="#171717">FID</text>
<text x="658.0" y="54.0" font-size="11" font-weight="bold" text-anchor="start" fill="#171717">Type</text>
<text x="768.0" y="54.0" font-size="11" font-weight="bold" text-anchor="start" fill="#171717">Notes</text>
<rect x="18" y="64" width="1244" height="54" fill="#e8e8e5" stroke="#ddddda" stroke-width="0.7"/>
<text x="26.0" y="82.0" font-size="10" font-weight="normal" text-anchor="start" fill="#171717">31700..36647</text>
<text x="178.0" y="82.0" font-size="10" font-weight="bold" text-anchor="start" fill="#171717">Tn3-like</text>
<line x1="272.0" y1="79.0" x2="238.0" y2="79.0" stroke="#000" stroke-width="6"/><polygon points="238.0,79.0 246.0,74.0 246.0,84.0" fill="#000000" stroke="#000"/>
<text x="528.0" y="82.0" font-size="10" font-weight="normal" text-anchor="start" fill="#171717"></text>
<text x="658.0" y="82.0" font-size="10" font-weight="normal" text-anchor="start" fill="#171717">Tn</text>
<text x="768.0" y="82.0" font-size="10" font-weight="normal" text-anchor="start" fill="#171717">rule based type candidate; complete; component grammar=complete; 6</text>
<text x="768.0" y="96.0" font-size="10" font-weight="normal" text-anchor="start" fill="#171717">independently sequence-detected components; expected DR=5 bp; searched</text>
<text x="768.0" y="110.0" font-size="10" font-weight="normal" text-anchor="start" fill="#171717">but not found</text>
<rect x="18" y="118" width="1244" height="40" fill="#ffffff" stroke="#ddddda" stroke-width="0.7"/>
<text x="26.0" y="136.0" font-size="10" font-weight="normal" text-anchor="start" fill="#171717">31700..31737</text>
<text x="198.0" y="136.0" font-size="10" font-weight="normal" text-anchor="start" fill="#171717">IRR</text>
<polygon points="228.0,127.0 218.0,133.0 228.0,139.0" fill="#fff" stroke="#111" stroke-width="1.2"/>
<text x="528.0" y="136.0" font-size="10" font-weight="normal" text-anchor="start" fill="#171717"></text>
<text x="658.0" y="136.0" font-size="10" font-weight="normal" text-anchor="start" fill="#171717">IR</text>
<text x="768.0" y="136.0" font-size="10" font-weight="normal" text-anchor="start" fill="#171717">independently sequence-detected terminal_IR; identity=100.0%;</text>
<text x="768.0" y="150.0" font-size="10" font-weight="normal" text-anchor="start" fill="#171717">coverage=100.0%</text>
<rect x="18" y="158" width="1244" height="28" fill="#f2f1ef" stroke="#ddddda" stroke-width="0.7"/>
<text x="26.0" y="176.0" font-size="10" font-weight="normal" text-anchor="start" fill="#171717">31733..34737</text>
<text x="198.0" y="176.0" font-size="10" font-weight="normal" text-anchor="start" fill="#171717">tnpA</text>
<line x1="268.0" y1="173.0" x2="234.0" y2="173.0" stroke="#000" stroke-width="6"/><polygon points="234.0,173.0 242.0,168.0 242.0,178.0" fill="#000000" stroke="#000"/>
<text x="528.0" y="176.0" font-size="10" font-weight="normal" text-anchor="start" fill="#171717"></text>
<text x="658.0" y="176.0" font-size="10" font-weight="normal" text-anchor="start" fill="#171717">gene</text>
<text x="768.0" y="176.0" font-size="10" font-weight="normal" text-anchor="start" fill="#171717">independently sequence-detected tnpA; identity=100.0%; coverage=100.0%</text>
<rect x="18" y="186" width="1244" height="28" fill="#ffffff" stroke="#ddddda" stroke-width="0.7"/>
<text x="26.0" y="204.0" font-size="10" font-weight="normal" text-anchor="start" fill="#171717">34781..34894</text>
<text x="198.0" y="204.0" font-size="10" font-weight="normal" text-anchor="start" fill="#171717">res</text>

<text x="528.0" y="204.0" font-size="10" font-weight="normal" text-anchor="start" fill="#171717"></text>
<text x="658.0" y="204.0" font-size="10" font-weight="normal" text-anchor="start" fill="#171717">res</text>
<text x="768.0" y="204.0" font-size="10" font-weight="normal" text-anchor="start" fill="#171717">independently sequence-detected res; identity=100.0%; coverage=100.0%</text>
<rect x="18" y="214" width="1244" height="28" fill="#f2f1ef" stroke="#ddddda" stroke-width="0.7"/>
<text x="26.0" y="232.0" font-size="10" font-weight="normal" text-anchor="start" fill="#171717">34900..35457</text>
<text x="198.0" y="232.0" font-size="10" font-weight="normal" text-anchor="start" fill="#171717">tnpR</text>
<line x1="234.0" y1="229.0" x2="268.0" y2="229.0" stroke="#000" stroke-width="6"/><polygon points="268.0,229.0 260.0,224.0 260.0,234.0" fill="#000000" stroke="#000"/>
<text x="528.0" y="232.0" font-size="10" font-weight="normal" text-anchor="start" fill="#171717"></text>
<text x="658.0" y="232.0" font-size="10" font-weight="normal" text-anchor="start" fill="#171717">gene</text>
<text x="768.0" y="232.0" font-size="10" font-weight="normal" text-anchor="start" fill="#171717">independently sequence-detected tnpR; identity=100.0%; coverage=100.0%</text>
<rect x="18" y="242" width="1244" height="28" fill="#ffffff" stroke="#ddddda" stroke-width="0.7"/>
<text x="26.0" y="260.0" font-size="10" font-weight="normal" text-anchor="start" fill="#171717">35640..36500</text>
<text x="198.0" y="260.0" font-size="10" font-weight="normal" text-anchor="start" fill="#171717">blaTEM-1a</text>
<line x1="264.0" y1="257.0" x2="298.0" y2="257.0" stroke="#000" stroke-width="6"/><polygon points="298.0,257.0 290.0,252.0 290.0,262.0" fill="#000000" stroke="#000"/>
<text x="528.0" y="260.0" font-size="10" font-weight="normal" text-anchor="start" fill="#171717"></text>
<text x="658.0" y="260.0" font-size="10" font-weight="normal" text-anchor="start" fill="#171717">R_gene</text>
<text x="768.0" y="260.0" font-size="10" font-weight="normal" text-anchor="start" fill="#171717">independently sequence-detected blaTEM; identity=100.0%; coverage=100.0%</text>
<rect x="18" y="270" width="1244" height="40" fill="#f2f1ef" stroke="#ddddda" stroke-width="0.7"/>
<text x="26.0" y="288.0" font-size="10" font-weight="normal" text-anchor="start" fill="#171717">36610..36647</text>
<text x="198.0" y="288.0" font-size="10" font-weight="normal" text-anchor="start" fill="#171717">IRL</text>
<polygon points="228.0,279.0 238.0,285.0 228.0,291.0" fill="#fff" stroke="#111" stroke-width="1.2"/>
<text x="528.0" y="288.0" font-size="10" font-weight="normal" text-anchor="start" fill="#171717"></text>
<text x="658.0" y="288.0" font-size="10" font-weight="normal" text-anchor="start" fill="#171717">IR</text>
<text x="768.0" y="288.0" font-size="10" font-weight="normal" text-anchor="start" fill="#171717">independently sequence-detected terminal_IR; identity=100.0%;</text>
<text x="768.0" y="302.0" font-size="10" font-weight="normal" text-anchor="start" fill="#171717">coverage=100.0%</text>
<line x1="18" y1="34" x2="18" y2="310" stroke="#d2d2cf" stroke-width="0.8"/>
<line x1="170" y1="34" x2="170" y2="310" stroke="#d2d2cf" stroke-width="0.8"/>
<line x1="520" y1="34" x2="520" y2="310" stroke="#d2d2cf" stroke-width="0.8"/>
<line x1="650" y1="34" x2="650" y2="310" stroke="#d2d2cf" stroke-width="0.8"/>
<line x1="760" y1="34" x2="760" y2="310" stroke="#d2d2cf" stroke-width="0.8"/>
<line x1="1262" y1="34" x2="1262" y2="310" stroke="#d2d2cf" stroke-width="0.8"/>
<text x="18.0" y="333.0" font-size="10" font-weight="bold" text-anchor="start" fill="#171717">Key:</text>
<line x1="62.0" y1="330.0" x2="96.0" y2="330.0" stroke="#000" stroke-width="6"/><polygon points="96.0,330.0 88.0,325.0 88.0,335.0" fill="#000000" stroke="#000"/>
<text x="105.0" y="333.0" font-size="10" font-weight="normal" text-anchor="start" fill="#171717">strand</text>
<polygon points="180.0,324.0 190.0,330.0 180.0,336.0" fill="#fff" stroke="#111" stroke-width="1.2"/>
<text x="198.0" y="333.0" font-size="10" font-weight="normal" text-anchor="start" fill="#171717">terminal inverted repeat (IR)</text>
<circle cx="430" cy="328" r="5" fill="#9ca3aa" stroke="#111"/>
<text x="443.0" y="333.0" font-size="10" font-weight="normal" text-anchor="start" fill="#171717">sequence-matched DR/TSD</text>
<circle cx="590" cy="328" r="5" fill="#fff" stroke="#737b83"/>
<text x="603.0" y="333.0" font-size="10" font-weight="normal" text-anchor="start" fill="#171717">expected, unconfirmed DR/TSD</text>
<text x="850.0" y="333.0" font-size="10" font-weight="normal" text-anchor="start" fill="#555555">Solid components are sequence-detected; dashed/outlined components are reference-projected.</text>
</svg>