<svg xmlns="http://www.w3.org/2000/svg" width="1280" height="178" style="background:#fff;font-family:Arial,Helvetica,sans-serif">
<rect x="0" y="0" width="1280" height="178" fill="#fff"/>
<text x="18.0" y="23.0" font-size="14" font-weight="bold" text-anchor="start" fill="#171717">Tn1722_AB366441 • Tn1722 1..5640 • view 1..5640</text>
<rect x="18" y="34" width="1244" height="30" fill="#eeeeec" stroke="#c9c9c6"/>
<text x="26.0" y="54.0" font-size="11" font-weight="bold" text-anchor="start" fill="#171717">Position</text>
<text x="178.0" y="54.0" font-size="11" font-weight="bold" text-anchor="start" fill="#171717">Name*</text>
<text x="528.0" y="54.0" font-size="11" font-weight="bold" text-anchor="start" fill="#171717">FID</text>
<text x="658.0" y="54.0" font-size="11" font-weight="bold" text-anchor="start" fill="#171717">Type</text>
<text x="768.0" y="54.0" font-size="11" font-weight="bold" text-anchor="start" fill="#171717">Notes</text>
<rect x="18" y="64" width="1244" height="40" fill="#e8e8e5" stroke="#ddddda" stroke-width="0.7"/>
<text x="26.0" y="82.0" font-size="10" font-weight="normal" text-anchor="start" fill="#171717">1..5640</text>
<text x="178.0" y="82.0" font-size="10" font-weight="bold" text-anchor="start" fill="#171717">Tn1722</text>
<line x1="226.0" y1="79.0" x2="260.0" y2="79.0" stroke="#000" stroke-width="6"/><polygon points="260.0,79.0 252.0,74.0 252.0,84.0" fill="#000"/>
<text x="528.0" y="82.0" font-size="10" font-weight="normal" text-anchor="start" fill="#171717">MARA-SP-Tn1722_AB366441</text>
<text x="658.0" y="82.0" font-size="10" font-weight="normal" text-anchor="start" fill="#171717">Tn</text>
<text x="768.0" y="82.0" font-size="10" font-weight="normal" text-anchor="start" fill="#171717">BLAST identity=100%; reference coverage=100%; expected DR=5 bp; flanking</text>
<text x="768.0" y="96.0" font-size="10" font-weight="normal" text-anchor="start" fill="#171717">sequence unavailable</text>
<rect x="18" y="104" width="1244" height="28" fill="#ffffff" stroke="#ddddda" stroke-width="0.7"/>
<text x="26.0" y="122.0" font-size="10" font-weight="normal" text-anchor="start" fill="#171717">1..38</text>
<text x="198.0" y="122.0" font-size="10" font-weight="normal" text-anchor="start" fill="#171717">IRL</text>
<polygon points="228.0,113.0 238.0,119.0 228.0,125.0" fill="#fff" stroke="#111" stroke-width="1.2"/>
<text x="528.0" y="122.0" font-size="10" font-weight="normal" text-anchor="start" fill="#171717">MARA-SP-Tn1721-IRL</text>
<text x="658.0" y="122.0" font-size="10" font-weight="normal" text-anchor="start" fill="#171717">IR</text>
<text x="768.0" y="122.0" font-size="10" font-weight="normal" text-anchor="start" fill="#171717">terminal inverted repeat; IR=38 bp</text>
<rect x="18" y="132" width="1244" height="28" fill="#f2f1ef" stroke="#ddddda" stroke-width="0.7"/>
<text x="26.0" y="150.0" font-size="10" font-weight="normal" text-anchor="start" fill="#171717">5603..5640</text>
<text x="198.0" y="150.0" font-size="10" font-weight="normal" text-anchor="start" fill="#171717">IRR</text>
<polygon points="228.0,141.0 218.0,147.0 228.0,153.0" fill="#fff" stroke="#111" stroke-width="1.2"/>
<text x="528.0" y="150.0" font-size="10" font-weight="normal" text-anchor="start" fill="#171717">MARA-SP-Tn1721-IRR</text>
<text x="658.0" y="150.0" font-size="10" font-weight="normal" text-anchor="start" fill="#171717">IR</text>
<text x="768.0" y="150.0" font-size="10" font-weight="normal" text-anchor="start" fill="#171717">terminal inverted repeat; IR=38 bp</text>
<line x1="18" y1="34" x2="18" y2="160" stroke="#d2d2cf" stroke-width="0.8"/>
<line x1="170" y1="34" x2="170" y2="160" stroke="#d2d2cf" stroke-width="0.8"/>
<line x1="520" y1="34" x2="520" y2="160" stroke="#d2d2cf" stroke-width="0.8"/>
<line x1="650" y1="34" x2="650" y2="160" stroke="#d2d2cf" stroke-width="0.8"/>
<line x1="760" y1="34" x2="760" y2="160" stroke="#d2d2cf" stroke-width="0.8"/>
<line x1="1262" y1="34" x2="1262" y2="160" stroke="#d2d2cf" stroke-width="0.8"/>
</svg>