<svg xmlns="http://www.w3.org/2000/svg" width="1280" height="312" style="background:#fff;font-family:Arial,Helvetica,sans-serif">
<rect x="0" y="0" width="1280" height="312" fill="#fff"/>
<text x="18.0" y="23.0" font-size="14" font-weight="bold" text-anchor="start" fill="#171717">EU935739.1 • Tn1/2/3 fragment 38747..40671 • view 33747..45671</text>
<rect x="18" y="34" width="1244" height="30" fill="#eeeeec" stroke="#c9c9c6"/>
<text x="26.0" y="54.0" font-size="11" font-weight="bold" text-anchor="start" fill="#171717">Position</text>
<text x="178.0" y="54.0" font-size="11" font-weight="bold" text-anchor="start" fill="#171717">Name*</text>
<text x="528.0" y="54.0" font-size="11" font-weight="bold" text-anchor="start" fill="#171717">FID</text>
<text x="658.0" y="54.0" font-size="11" font-weight="bold" text-anchor="start" fill="#171717">Type</text>
<text x="768.0" y="54.0" font-size="11" font-weight="bold" text-anchor="start" fill="#171717">Notes</text>
<rect x="18" y="64" width="1244" height="28" fill="#f2f1ef" stroke="#ddddda" stroke-width="0.7"/>
<text x="26.0" y="82.0" font-size="10" font-weight="normal" text-anchor="start" fill="#171717">37107..38746</text>
<text x="178.0" y="82.0" font-size="10" font-weight="normal" text-anchor="start" fill="#171717">ISEcp1</text>
<line x1="260.0" y1="79.0" x2="226.0" y2="79.0" stroke="#343a40" stroke-width="6"/><polygon points="226.0,79.0 234.0,74.0 234.0,84.0" fill="#717b85" stroke="#343a40"/>
<text x="528.0" y="82.0" font-size="10" font-weight="normal" text-anchor="start" fill="#171717">FJ621588</text>
<text x="658.0" y="82.0" font-size="10" font-weight="normal" text-anchor="start" fill="#171717">IS</text>
<text x="768.0" y="82.0" font-size="10" font-weight="normal" text-anchor="start" fill="#171717"></text>
<rect x="18" y="92" width="1244" height="68" fill="#e8e8e5" stroke="#ddddda" stroke-width="0.7"/>
<text x="26.0" y="110.0" font-size="10" font-weight="normal" text-anchor="start" fill="#171717">38747..40671</text>
<text x="178.0" y="110.0" font-size="10" font-weight="bold" text-anchor="start" fill="#171717">Tn1/2/3 fragment</text>
<line x1="320.0" y1="107.0" x2="286.0" y2="107.0" stroke="#343a40" stroke-width="6"/><polygon points="286.0,107.0 294.0,102.0 294.0,112.0" fill="#717b85" stroke="#343a40"/>
<text x="528.0" y="110.0" font-size="10" font-weight="normal" text-anchor="start" fill="#171717">AY123253</text>
<text x="658.0" y="110.0" font-size="10" font-weight="normal" text-anchor="start" fill="#171717">Tn</text>
<text x="768.0" y="110.0" font-size="10" font-weight="normal" text-anchor="start" fill="#171717">BLAST identity=100%; reference coverage=38.89%; closest definition=Tn2;</text>
<text x="768.0" y="124.0" font-size="10" font-weight="normal" text-anchor="start" fill="#171717">rule incomplete; partial or conflicting; component</text>
<text x="768.0" y="138.0" font-size="10" font-weight="normal" text-anchor="start" fill="#171717">grammar=partial_or_conflicting; 3 independently sequence-detected</text>
<text x="768.0" y="152.0" font-size="10" font-weight="normal" text-anchor="start" fill="#171717">components; exact Tn1/Tn2/Tn3 identity unresolved</text>
<rect x="18" y="160" width="1244" height="28" fill="#f2f1ef" stroke="#ddddda" stroke-width="0.7"/>
<text x="26.0" y="178.0" font-size="10" font-weight="normal" text-anchor="start" fill="#171717">39005..39118</text>
<text x="198.0" y="178.0" font-size="10" font-weight="normal" text-anchor="start" fill="#171717">res</text>

<text x="528.0" y="178.0" font-size="10" font-weight="normal" text-anchor="start" fill="#171717"></text>
<text x="658.0" y="178.0" font-size="10" font-weight="normal" text-anchor="start" fill="#171717">res</text>
<text x="768.0" y="178.0" font-size="10" font-weight="normal" text-anchor="start" fill="#171717">independently sequence-detected res; identity=100.0%; coverage=100.0%</text>
<rect x="18" y="188" width="1244" height="28" fill="#ffffff" stroke="#ddddda" stroke-width="0.7"/>
<text x="26.0" y="206.0" font-size="10" font-weight="normal" text-anchor="start" fill="#171717">39124..39681</text>
<text x="198.0" y="206.0" font-size="10" font-weight="normal" text-anchor="start" fill="#171717">tnpR</text>
<line x1="234.0" y1="203.0" x2="268.0" y2="203.0" stroke="#343a40" stroke-width="6"/><polygon points="268.0,203.0 260.0,198.0 260.0,208.0" fill="#717b85" stroke="#343a40"/>
<text x="528.0" y="206.0" font-size="10" font-weight="normal" text-anchor="start" fill="#171717"></text>
<text x="658.0" y="206.0" font-size="10" font-weight="normal" text-anchor="start" fill="#171717">gene</text>
<text x="768.0" y="206.0" font-size="10" font-weight="normal" text-anchor="start" fill="#171717">independently sequence-detected tnpR; identity=100.0%; coverage=100.0%</text>
<rect x="18" y="216" width="1244" height="40" fill="#f2f1ef" stroke="#ddddda" stroke-width="0.7"/>
<text x="26.0" y="234.0" font-size="10" font-weight="normal" text-anchor="start" fill="#171717">39864..40671</text>
<text x="198.0" y="234.0" font-size="10" font-weight="normal" text-anchor="start" fill="#171717">blaTEM-1b</text>
<line x1="264.0" y1="231.0" x2="298.0" y2="231.0" stroke="#343a40" stroke-width="6"/><polygon points="298.0,231.0 290.0,226.0 290.0,236.0" fill="#717b85" stroke="#343a40"/>
<text x="528.0" y="234.0" font-size="10" font-weight="normal" text-anchor="start" fill="#171717"></text>
<text x="658.0" y="234.0" font-size="10" font-weight="normal" text-anchor="start" fill="#171717">R_gene</text>
<text x="768.0" y="234.0" font-size="10" font-weight="normal" text-anchor="start" fill="#171717">independently sequence-detected blaTEM; identity=100.0%;</text>
<text x="768.0" y="248.0" font-size="10" font-weight="normal" text-anchor="start" fill="#171717">coverage=93.84%; left partial</text>
<line x1="18" y1="34" x2="18" y2="256" stroke="#d2d2cf" stroke-width="0.8"/>
<line x1="170" y1="34" x2="170" y2="256" stroke="#d2d2cf" stroke-width="0.8"/>
<line x1="520" y1="34" x2="520" y2="256" stroke="#d2d2cf" stroke-width="0.8"/>
<line x1="650" y1="34" x2="650" y2="256" stroke="#d2d2cf" stroke-width="0.8"/>
<line x1="760" y1="34" x2="760" y2="256" stroke="#d2d2cf" stroke-width="0.8"/>
<line x1="1262" y1="34" x2="1262" y2="256" stroke="#d2d2cf" stroke-width="0.8"/>
<text x="18.0" y="279.0" font-size="10" font-weight="bold" text-anchor="start" fill="#171717">Key:</text>
<line x1="62.0" y1="276.0" x2="96.0" y2="276.0" stroke="#343a40" stroke-width="6"/><polygon points="96.0,276.0 88.0,271.0 88.0,281.0" fill="#717b85" stroke="#343a40"/>
<text x="105.0" y="279.0" font-size="10" font-weight="normal" text-anchor="start" fill="#171717">strand</text>
<polygon points="180.0,270.0 190.0,276.0 180.0,282.0" fill="#fff" stroke="#111" stroke-width="1.2"/>
<text x="198.0" y="279.0" font-size="10" font-weight="normal" text-anchor="start" fill="#171717">terminal inverted repeat (IR)</text>
<circle cx="430" cy="274" r="5" fill="#9ca3aa" stroke="#111"/>
<text x="443.0" y="279.0" font-size="10" font-weight="normal" text-anchor="start" fill="#171717">sequence-matched DR/TSD</text>
<circle cx="590" cy="274" r="5" fill="#fff" stroke="#737b83"/>
<text x="603.0" y="279.0" font-size="10" font-weight="normal" text-anchor="start" fill="#171717">expected, unconfirmed DR/TSD</text>
<text x="850.0" y="279.0" font-size="10" font-weight="normal" text-anchor="start" fill="#555555">Solid components are sequence-detected; dashed/outlined components are reference-projected.</text>
</svg>