<svg xmlns="http://www.w3.org/2000/svg" width="1280" height="338" style="background:#fff;font-family:Arial,Helvetica,sans-serif">
<rect x="0" y="0" width="1280" height="338" fill="#fff"/>
<text x="18.0" y="23.0" font-size="14" font-weight="bold" text-anchor="start" fill="#171717">EU935739.1 • Tn1722 fragment 50511..51256 • view 45511..56256</text>
<rect x="18" y="34" width="1244" height="30" fill="#eeeeec" stroke="#c9c9c6"/>
<text x="26.0" y="54.0" font-size="11" font-weight="bold" text-anchor="start" fill="#171717">Position</text>
<text x="178.0" y="54.0" font-size="11" font-weight="bold" text-anchor="start" fill="#171717">Name*</text>
<text x="528.0" y="54.0" font-size="11" font-weight="bold" text-anchor="start" fill="#171717">FID</text>
<text x="658.0" y="54.0" font-size="11" font-weight="bold" text-anchor="start" fill="#171717">Type</text>
<text x="768.0" y="54.0" font-size="11" font-weight="bold" text-anchor="start" fill="#171717">Notes</text>
<rect x="18" y="64" width="1244" height="54" fill="#e8e8e5" stroke="#ddddda" stroke-width="0.7"/>
<text x="26.0" y="82.0" font-size="10" font-weight="normal" text-anchor="start" fill="#171717">46849..50512</text>
<text x="178.0" y="82.0" font-size="10" font-weight="bold" text-anchor="start" fill="#171717">Tn5403-like</text>
<line x1="290.0" y1="79.0" x2="256.0" y2="79.0" stroke="#000" stroke-width="6"/><polygon points="256.0,79.0 264.0,74.0 264.0,84.0" fill="#000000" stroke="#000"/>
<text x="528.0" y="82.0" font-size="10" font-weight="normal" text-anchor="start" fill="#171717">LOCUS-REF-Tn5403_X75779</text>
<text x="658.0" y="82.0" font-size="10" font-weight="normal" text-anchor="start" fill="#171717">Tn</text>
<text x="768.0" y="82.0" font-size="10" font-weight="normal" text-anchor="start" fill="#171717">BLAST identity=99.92%; reference coverage=100%; complete with insertion;</text>
<text x="768.0" y="96.0" font-size="10" font-weight="normal" text-anchor="start" fill="#171717">complete with insertion; inserted sequence≈1 bp; expected DR=5 bp;</text>
<text x="768.0" y="110.0" font-size="10" font-weight="normal" text-anchor="start" fill="#171717">searched but not found</text>
<rect x="18" y="118" width="1244" height="28" fill="#ffffff" stroke="#ddddda" stroke-width="0.7"/>
<text x="26.0" y="136.0" font-size="10" font-weight="normal" text-anchor="start" fill="#171717">46849..46886</text>
<text x="198.0" y="136.0" font-size="10" font-weight="normal" text-anchor="start" fill="#171717">IRR</text>
<polygon points="228.0,127.0 218.0,133.0 228.0,139.0" fill="#fff" stroke="#111" stroke-width="1.2"/>
<text x="528.0" y="136.0" font-size="10" font-weight="normal" text-anchor="start" fill="#171717">LOCUS-REF-Tn5403-IR</text>
<text x="658.0" y="136.0" font-size="10" font-weight="normal" text-anchor="start" fill="#171717">IR</text>
<text x="768.0" y="136.0" font-size="10" font-weight="normal" text-anchor="start" fill="#171717">terminal inverted repeat; IR=38 bp</text>
<rect x="18" y="146" width="1244" height="28" fill="#f2f1ef" stroke="#ddddda" stroke-width="0.7"/>
<text x="26.0" y="164.0" font-size="10" font-weight="normal" text-anchor="start" fill="#171717">50475..50512</text>
<text x="198.0" y="164.0" font-size="10" font-weight="normal" text-anchor="start" fill="#171717">IRL</text>
<polygon points="228.0,155.0 238.0,161.0 228.0,167.0" fill="#fff" stroke="#111" stroke-width="1.2"/>
<text x="528.0" y="164.0" font-size="10" font-weight="normal" text-anchor="start" fill="#171717">LOCUS-REF-Tn5403-IR</text>
<text x="658.0" y="164.0" font-size="10" font-weight="normal" text-anchor="start" fill="#171717">IR</text>
<text x="768.0" y="164.0" font-size="10" font-weight="normal" text-anchor="start" fill="#171717">terminal inverted repeat; IR=38 bp</text>
<rect x="18" y="174" width="1244" height="54" fill="#e8e8e5" stroke="#ddddda" stroke-width="0.7"/>
<text x="26.0" y="192.0" font-size="10" font-weight="normal" text-anchor="start" fill="#171717">50511..51256</text>
<text x="178.0" y="192.0" font-size="10" font-weight="bold" text-anchor="start" fill="#171717">Tn1722 fragment</text>
<line x1="314.0" y1="189.0" x2="280.0" y2="189.0" stroke="#000" stroke-width="6"/><polygon points="280.0,189.0 288.0,184.0 288.0,194.0" fill="#000000" stroke="#000"/>
<text x="528.0" y="192.0" font-size="10" font-weight="normal" text-anchor="start" fill="#171717">LOCUS-REF-Tn1722_AB366441</text>
<text x="658.0" y="192.0" font-size="10" font-weight="normal" text-anchor="start" fill="#171717">Tn</text>
<text x="768.0" y="192.0" font-size="10" font-weight="normal" text-anchor="start" fill="#171717">BLAST identity=99.87%; reference coverage=13.23%; internal fragment;</text>
<text x="768.0" y="206.0" font-size="10" font-weight="normal" text-anchor="start" fill="#171717">internal fragment; expected DR=5 bp; searched but not found; exact</text>
<text x="768.0" y="220.0" font-size="10" font-weight="normal" text-anchor="start" fill="#171717">Tn1/Tn2/Tn3 identity unresolved</text>
<rect x="18" y="228" width="1244" height="54" fill="#e8e8e5" stroke="#ddddda" stroke-width="0.7"/>
<text x="26.0" y="246.0" font-size="10" font-weight="normal" text-anchor="start" fill="#171717">54940..56492</text>
<text x="178.0" y="246.0" font-size="10" font-weight="bold" text-anchor="start" fill="#171717">Tn1722 fragment</text>
<line x1="314.0" y1="243.0" x2="280.0" y2="243.0" stroke="#000" stroke-width="6"/><polygon points="280.0,243.0 288.0,238.0 288.0,248.0" fill="#000000" stroke="#000"/>
<text x="528.0" y="246.0" font-size="10" font-weight="normal" text-anchor="start" fill="#171717">LOCUS-REF-Tn1722_AB366441</text>
<text x="658.0" y="246.0" font-size="10" font-weight="normal" text-anchor="start" fill="#171717">Tn</text>
<text x="768.0" y="246.0" font-size="10" font-weight="normal" text-anchor="start" fill="#171717">BLAST identity=99.94%; reference coverage=27.54%; left partial; left</text>
<text x="768.0" y="260.0" font-size="10" font-weight="normal" text-anchor="start" fill="#171717">partial; expected DR=5 bp; searched but not found; exact Tn1/Tn2/Tn3</text>
<text x="768.0" y="274.0" font-size="10" font-weight="normal" text-anchor="start" fill="#171717">identity unresolved</text>
<line x1="18" y1="34" x2="18" y2="282" stroke="#d2d2cf" stroke-width="0.8"/>
<line x1="170" y1="34" x2="170" y2="282" stroke="#d2d2cf" stroke-width="0.8"/>
<line x1="520" y1="34" x2="520" y2="282" stroke="#d2d2cf" stroke-width="0.8"/>
<line x1="650" y1="34" x2="650" y2="282" stroke="#d2d2cf" stroke-width="0.8"/>
<line x1="760" y1="34" x2="760" y2="282" stroke="#d2d2cf" stroke-width="0.8"/>
<line x1="1262" y1="34" x2="1262" y2="282" stroke="#d2d2cf" stroke-width="0.8"/>
<text x="18.0" y="305.0" font-size="10" font-weight="bold" text-anchor="start" fill="#171717">Key:</text>
<line x1="62.0" y1="302.0" x2="96.0" y2="302.0" stroke="#000" stroke-width="6"/><polygon points="96.0,302.0 88.0,297.0 88.0,307.0" fill="#000000" stroke="#000"/>
<text x="105.0" y="305.0" font-size="10" font-weight="normal" text-anchor="start" fill="#171717">strand</text>
<polygon points="180.0,296.0 190.0,302.0 180.0,308.0" fill="#fff" stroke="#111" stroke-width="1.2"/>
<text x="198.0" y="305.0" font-size="10" font-weight="normal" text-anchor="start" fill="#171717">terminal inverted repeat (IR)</text>
<circle cx="430" cy="300" r="5" fill="#9ca3aa" stroke="#111"/>
<text x="443.0" y="305.0" font-size="10" font-weight="normal" text-anchor="start" fill="#171717">sequence-matched DR/TSD</text>
<circle cx="590" cy="300" r="5" fill="#fff" stroke="#737b83"/>
<text x="603.0" y="305.0" font-size="10" font-weight="normal" text-anchor="start" fill="#171717">expected, unconfirmed DR/TSD</text>
<text x="850.0" y="305.0" font-size="10" font-weight="normal" text-anchor="start" fill="#555555">Solid components are sequence-detected; dashed/outlined components are reference-projected.</text>
</svg>