<svg xmlns="http://www.w3.org/2000/svg" width="1280" height="558" style="background:#fff;font-family:Arial,Helvetica,sans-serif">
<rect x="0" y="0" width="1280" height="558" fill="#fff"/>
<text x="18.0" y="23.0" font-size="14" font-weight="bold" text-anchor="start" fill="#171717">EU935739.1 • Tn1722 fragment 54940..56492 • view 49940..61492</text>
<rect x="18" y="34" width="1244" height="30" fill="#eeeeec" stroke="#c9c9c6"/>
<text x="26.0" y="54.0" font-size="11" font-weight="bold" text-anchor="start" fill="#171717">Position</text>
<text x="178.0" y="54.0" font-size="11" font-weight="bold" text-anchor="start" fill="#171717">Name*</text>
<text x="528.0" y="54.0" font-size="11" font-weight="bold" text-anchor="start" fill="#171717">FID</text>
<text x="658.0" y="54.0" font-size="11" font-weight="bold" text-anchor="start" fill="#171717">Type</text>
<text x="768.0" y="54.0" font-size="11" font-weight="bold" text-anchor="start" fill="#171717">Notes</text>
<rect x="18" y="64" width="1244" height="54" fill="#e8e8e5" stroke="#ddddda" stroke-width="0.7"/>
<text x="26.0" y="82.0" font-size="10" font-weight="normal" text-anchor="start" fill="#171717">46849..50512</text>
<text x="178.0" y="82.0" font-size="10" font-weight="bold" text-anchor="start" fill="#171717">Tn5403-like</text>
<line x1="290.0" y1="79.0" x2="256.0" y2="79.0" stroke="#343a40" stroke-width="6"/><polygon points="256.0,79.0 264.0,74.0 264.0,84.0" fill="#717b85" stroke="#343a40"/>
<text x="528.0" y="82.0" font-size="10" font-weight="normal" text-anchor="start" fill="#171717">LOCUS-REF-Tn5403_X75779</text>
<text x="658.0" y="82.0" font-size="10" font-weight="normal" text-anchor="start" fill="#171717">Tn</text>
<text x="768.0" y="82.0" font-size="10" font-weight="normal" text-anchor="start" fill="#171717">BLAST identity=99.92%; reference coverage=100%; complete with insertion;</text>
<text x="768.0" y="96.0" font-size="10" font-weight="normal" text-anchor="start" fill="#171717">complete with insertion; inserted sequence≈1 bp; expected DR=5 bp;</text>
<text x="768.0" y="110.0" font-size="10" font-weight="normal" text-anchor="start" fill="#171717">searched but not found</text>
<rect x="18" y="118" width="1244" height="28" fill="#ffffff" stroke="#ddddda" stroke-width="0.7"/>
<text x="26.0" y="136.0" font-size="10" font-weight="normal" text-anchor="start" fill="#171717">50475..50512</text>
<text x="198.0" y="136.0" font-size="10" font-weight="normal" text-anchor="start" fill="#171717">IRL</text>
<polygon points="228.0,127.0 238.0,133.0 228.0,139.0" fill="#fff" stroke="#111" stroke-width="1.2"/>
<text x="528.0" y="136.0" font-size="10" font-weight="normal" text-anchor="start" fill="#171717">LOCUS-REF-Tn5403-IR</text>
<text x="658.0" y="136.0" font-size="10" font-weight="normal" text-anchor="start" fill="#171717">IR</text>
<text x="768.0" y="136.0" font-size="10" font-weight="normal" text-anchor="start" fill="#171717">terminal inverted repeat; IR=38 bp</text>
<rect x="18" y="146" width="1244" height="54" fill="#e8e8e5" stroke="#ddddda" stroke-width="0.7"/>
<text x="26.0" y="164.0" font-size="10" font-weight="normal" text-anchor="start" fill="#171717">50511..51256</text>
<text x="178.0" y="164.0" font-size="10" font-weight="bold" text-anchor="start" fill="#171717">Tn1722 fragment</text>
<line x1="314.0" y1="161.0" x2="280.0" y2="161.0" stroke="#343a40" stroke-width="6"/><polygon points="280.0,161.0 288.0,156.0 288.0,166.0" fill="#717b85" stroke="#343a40"/>
<text x="528.0" y="164.0" font-size="10" font-weight="normal" text-anchor="start" fill="#171717">LOCUS-REF-Tn1722_AB366441</text>
<text x="658.0" y="164.0" font-size="10" font-weight="normal" text-anchor="start" fill="#171717">Tn</text>
<text x="768.0" y="164.0" font-size="10" font-weight="normal" text-anchor="start" fill="#171717">BLAST identity=99.87%; reference coverage=13.23%; internal fragment;</text>
<text x="768.0" y="178.0" font-size="10" font-weight="normal" text-anchor="start" fill="#171717">internal fragment; expected DR=5 bp; searched but not found; exact</text>
<text x="768.0" y="192.0" font-size="10" font-weight="normal" text-anchor="start" fill="#171717">Tn1/Tn2/Tn3 identity unresolved</text>
<rect x="18" y="200" width="1244" height="28" fill="#ffffff" stroke="#ddddda" stroke-width="0.7"/>
<text x="26.0" y="218.0" font-size="10" font-weight="normal" text-anchor="start" fill="#171717">51056..51456</text>
<text x="178.0" y="218.0" font-size="10" font-weight="normal" text-anchor="start" fill="#171717">tet-to-tnp duplication junction</text>
<line x1="410.0" y1="215.0" x2="376.0" y2="215.0" stroke="#343a40" stroke-width="6"/><polygon points="376.0,215.0 384.0,210.0 384.0,220.0" fill="#717b85" stroke="#343a40"/>
<text x="528.0" y="218.0" font-size="10" font-weight="normal" text-anchor="start" fill="#171717"></text>
<text x="658.0" y="218.0" font-size="10" font-weight="normal" text-anchor="start" fill="#171717">region</text>
<text x="768.0" y="218.0" font-size="10" font-weight="normal" text-anchor="start" fill="#171717"></text>
<rect x="18" y="228" width="1244" height="28" fill="#f2f1ef" stroke="#ddddda" stroke-width="0.7"/>
<text x="26.0" y="246.0" font-size="10" font-weight="normal" text-anchor="start" fill="#171717">51786..52670</text>
<text x="178.0" y="246.0" font-size="10" font-weight="normal" text-anchor="start" fill="#171717">pecM</text>
<line x1="214.0" y1="243.0" x2="248.0" y2="243.0" stroke="#343a40" stroke-width="6"/><polygon points="248.0,243.0 240.0,238.0 240.0,248.0" fill="#717b85" stroke="#343a40"/>
<text x="528.0" y="246.0" font-size="10" font-weight="normal" text-anchor="start" fill="#171717"></text>
<text x="658.0" y="246.0" font-size="10" font-weight="normal" text-anchor="start" fill="#171717">gene</text>
<text x="768.0" y="246.0" font-size="10" font-weight="normal" text-anchor="start" fill="#171717"></text>
<rect x="18" y="256" width="1244" height="28" fill="#ffffff" stroke="#ddddda" stroke-width="0.7"/>
<text x="26.0" y="274.0" font-size="10" font-weight="normal" text-anchor="start" fill="#171717">52702..53901</text>
<text x="178.0" y="274.0" font-size="10" font-weight="normal" text-anchor="start" fill="#171717">tet(A)</text>
<line x1="260.0" y1="271.0" x2="226.0" y2="271.0" stroke="#343a40" stroke-width="6"/><polygon points="226.0,271.0 234.0,266.0 234.0,276.0" fill="#717b85" stroke="#343a40"/>
<text x="528.0" y="274.0" font-size="10" font-weight="normal" text-anchor="start" fill="#171717"></text>
<text x="658.0" y="274.0" font-size="10" font-weight="normal" text-anchor="start" fill="#171717">R_gene</text>
<text x="768.0" y="274.0" font-size="10" font-weight="normal" text-anchor="start" fill="#171717"></text>
<rect x="18" y="284" width="1244" height="28" fill="#f2f1ef" stroke="#ddddda" stroke-width="0.7"/>
<text x="26.0" y="302.0" font-size="10" font-weight="normal" text-anchor="start" fill="#171717">54007..54657</text>
<text x="178.0" y="302.0" font-size="10" font-weight="normal" text-anchor="start" fill="#171717">tetR</text>
<line x1="214.0" y1="299.0" x2="248.0" y2="299.0" stroke="#343a40" stroke-width="6"/><polygon points="248.0,299.0 240.0,294.0 240.0,304.0" fill="#717b85" stroke="#343a40"/>
<text x="528.0" y="302.0" font-size="10" font-weight="normal" text-anchor="start" fill="#171717"></text>
<text x="658.0" y="302.0" font-size="10" font-weight="normal" text-anchor="start" fill="#171717">gene</text>
<text x="768.0" y="302.0" font-size="10" font-weight="normal" text-anchor="start" fill="#171717"></text>
<rect x="18" y="312" width="1244" height="54" fill="#e8e8e5" stroke="#ddddda" stroke-width="0.7"/>
<text x="26.0" y="330.0" font-size="10" font-weight="normal" text-anchor="start" fill="#171717">54940..56492</text>
<text x="178.0" y="330.0" font-size="10" font-weight="bold" text-anchor="start" fill="#171717">Tn1722 fragment</text>
<line x1="314.0" y1="327.0" x2="280.0" y2="327.0" stroke="#343a40" stroke-width="6"/><polygon points="280.0,327.0 288.0,322.0 288.0,332.0" fill="#717b85" stroke="#343a40"/>
<text x="528.0" y="330.0" font-size="10" font-weight="normal" text-anchor="start" fill="#171717">LOCUS-REF-Tn1722_AB366441</text>
<text x="658.0" y="330.0" font-size="10" font-weight="normal" text-anchor="start" fill="#171717">Tn</text>
<text x="768.0" y="330.0" font-size="10" font-weight="normal" text-anchor="start" fill="#171717">BLAST identity=99.94%; reference coverage=27.54%; left partial; left</text>
<text x="768.0" y="344.0" font-size="10" font-weight="normal" text-anchor="start" fill="#171717">partial; expected DR=5 bp; searched but not found; exact Tn1/Tn2/Tn3</text>
<text x="768.0" y="358.0" font-size="10" font-weight="normal" text-anchor="start" fill="#171717">identity unresolved</text>
<rect x="18" y="366" width="1244" height="28" fill="#f2f1ef" stroke="#ddddda" stroke-width="0.7"/>
<text x="26.0" y="384.0" font-size="10" font-weight="normal" text-anchor="start" fill="#171717">54940..54977</text>
<text x="198.0" y="384.0" font-size="10" font-weight="normal" text-anchor="start" fill="#171717">IRR</text>
<polygon points="228.0,375.0 218.0,381.0 228.0,387.0" fill="#fff" stroke="#111" stroke-width="1.2"/>
<text x="528.0" y="384.0" font-size="10" font-weight="normal" text-anchor="start" fill="#171717"></text>
<text x="658.0" y="384.0" font-size="10" font-weight="normal" text-anchor="start" fill="#171717">IR</text>
<text x="768.0" y="384.0" font-size="10" font-weight="normal" text-anchor="start" fill="#171717">terminal inverted repeat; IR=38 bp</text>
<rect x="18" y="394" width="1244" height="68" fill="#e8e8e5" stroke="#ddddda" stroke-width="0.7"/>
<text x="26.0" y="412.0" font-size="10" font-weight="normal" text-anchor="start" fill="#171717">60316..62561</text>
<text x="178.0" y="412.0" font-size="10" font-weight="bold" text-anchor="start" fill="#171717">Tn1/2/3 fragment</text>
<line x1="320.0" y1="409.0" x2="286.0" y2="409.0" stroke="#343a40" stroke-width="6"/><polygon points="286.0,409.0 294.0,404.0 294.0,414.0" fill="#717b85" stroke="#343a40"/>
<text x="528.0" y="412.0" font-size="10" font-weight="normal" text-anchor="start" fill="#171717">AY123253</text>
<text x="658.0" y="412.0" font-size="10" font-weight="normal" text-anchor="start" fill="#171717">Tn</text>
<text x="768.0" y="412.0" font-size="10" font-weight="normal" text-anchor="start" fill="#171717">BLAST identity=100%; reference coverage=45.37%; closest definition=Tn2;</text>
<text x="768.0" y="426.0" font-size="10" font-weight="normal" text-anchor="start" fill="#171717">rule incomplete; partial or conflicting; component</text>
<text x="768.0" y="440.0" font-size="10" font-weight="normal" text-anchor="start" fill="#171717">grammar=partial_or_conflicting; 1 independently sequence-detected</text>
<text x="768.0" y="454.0" font-size="10" font-weight="normal" text-anchor="start" fill="#171717">components; exact Tn1/Tn2/Tn3 identity unresolved</text>
<rect x="18" y="462" width="1244" height="40" fill="#f2f1ef" stroke="#ddddda" stroke-width="0.7"/>
<text x="26.0" y="480.0" font-size="10" font-weight="normal" text-anchor="start" fill="#171717">60316..62561</text>
<text x="178.0" y="480.0" font-size="10" font-weight="normal" text-anchor="start" fill="#171717">tnpA</text>
<line x1="248.0" y1="477.0" x2="214.0" y2="477.0" stroke="#343a40" stroke-width="6"/><polygon points="214.0,477.0 222.0,472.0 222.0,482.0" fill="#717b85" stroke="#343a40"/>
<text x="528.0" y="480.0" font-size="10" font-weight="normal" text-anchor="start" fill="#171717"></text>
<text x="658.0" y="480.0" font-size="10" font-weight="normal" text-anchor="start" fill="#171717">gene</text>
<text x="768.0" y="480.0" font-size="10" font-weight="normal" text-anchor="start" fill="#171717">independently sequence-detected tnpA; identity=100.0%; coverage=74.69%;</text>
<text x="768.0" y="494.0" font-size="10" font-weight="normal" text-anchor="start" fill="#171717">internal fragment</text>
<line x1="18" y1="34" x2="18" y2="502" stroke="#d2d2cf" stroke-width="0.8"/>
<line x1="170" y1="34" x2="170" y2="502" stroke="#d2d2cf" stroke-width="0.8"/>
<line x1="520" y1="34" x2="520" y2="502" stroke="#d2d2cf" stroke-width="0.8"/>
<line x1="650" y1="34" x2="650" y2="502" stroke="#d2d2cf" stroke-width="0.8"/>
<line x1="760" y1="34" x2="760" y2="502" stroke="#d2d2cf" stroke-width="0.8"/>
<line x1="1262" y1="34" x2="1262" y2="502" stroke="#d2d2cf" stroke-width="0.8"/>
<text x="18.0" y="525.0" font-size="10" font-weight="bold" text-anchor="start" fill="#171717">Key:</text>
<line x1="62.0" y1="522.0" x2="96.0" y2="522.0" stroke="#343a40" stroke-width="6"/><polygon points="96.0,522.0 88.0,517.0 88.0,527.0" fill="#717b85" stroke="#343a40"/>
<text x="105.0" y="525.0" font-size="10" font-weight="normal" text-anchor="start" fill="#171717">strand</text>
<polygon points="180.0,516.0 190.0,522.0 180.0,528.0" fill="#fff" stroke="#111" stroke-width="1.2"/>
<text x="198.0" y="525.0" font-size="10" font-weight="normal" text-anchor="start" fill="#171717">terminal inverted repeat (IR)</text>
<circle cx="430" cy="520" r="5" fill="#9ca3aa" stroke="#111"/>
<text x="443.0" y="525.0" font-size="10" font-weight="normal" text-anchor="start" fill="#171717">sequence-matched DR/TSD</text>
<circle cx="590" cy="520" r="5" fill="#fff" stroke="#737b83"/>
<text x="603.0" y="525.0" font-size="10" font-weight="normal" text-anchor="start" fill="#171717">expected, unconfirmed DR/TSD</text>
<text x="850.0" y="525.0" font-size="10" font-weight="normal" text-anchor="start" fill="#555555">Solid components are sequence-detected; dashed/outlined components are reference-projected.</text>
</svg>