<svg xmlns="http://www.w3.org/2000/svg" width="1280" height="304" style="background:#fff;font-family:Arial,Helvetica,sans-serif">
<rect x="0" y="0" width="1280" height="304" fill="#ffffff"/>
<rect x="72.0" y="44" width="56.2" height="40" fill="#d8d493" stroke="#343a40" stroke-width="2"/>
<text x="100.1" y="20.0" text-anchor="middle" font-size="12" font-weight="bold" font-style="normal" fill="#343a40">Tn5403-like</text>
<polygon points="136.2,44.0 193.4,44.0 201.4,52.0 193.4,60.0 201.4,69.0 193.4,78.0 201.4,76.0 193.4,84.0 136.2,84.0 128.2,76.0 136.2,68.0 128.2,69.0 136.2,60.0 128.2,52.0" fill="#e3a6a0" stroke="#343a40" stroke-width="2"/>
<text x="164.8" y="20.0" text-anchor="middle" font-size="12" font-weight="bold" font-style="normal" fill="#343a40">Tn1722 fragment</text>
<line x1="108.2" y1="66" x2="128.2" y2="66" stroke="#c96f73" stroke-width="2" stroke-dasharray="5,3"/>
<line x1="201.4" y1="66" x2="221.4" y2="66" stroke="#c96f73" stroke-width="2" stroke-dasharray="5,3"/>
<polygon points="571.7,44.0 716.3,44.0 716.3,84.0 571.7,84.0 563.7,76.0 571.7,68.0 563.7,69.0 571.7,60.0 563.7,52.0" fill="#e3a6a0" stroke="#343a40" stroke-width="2"/>
<text x="640.0" y="20.0" text-anchor="middle" font-size="12" font-weight="bold" font-style="normal" fill="#343a40">Tn1722 fragment</text>
<line x1="543.7" y1="66" x2="563.7" y2="66" stroke="#c96f73" stroke-width="2" stroke-dasharray="5,3"/>
<line x1="716.3" y1="66" x2="736.3" y2="66" stroke="#c96f73" stroke-width="2" stroke-dasharray="5,3"/>
<polygon points="1100.4,44.0 1200.0,44.0 1208.0,52.0 1200.0,60.0 1208.0,69.0 1200.0,78.0 1208.0,76.0 1200.0,84.0 1100.4,84.0 1092.4,76.0 1100.4,68.0 1092.4,69.0 1100.4,60.0 1092.4,52.0" fill="#8fc7b5" stroke="#343a40" stroke-width="2"/>
<text x="1150.2" y="20.0" text-anchor="middle" font-size="12" font-weight="bold" font-style="normal" fill="#343a40">Tn1/2/3 fragment</text>
<line x1="1072.4" y1="66" x2="1092.4" y2="66" stroke="#c96f73" stroke-width="2" stroke-dasharray="5,3"/>
<line x1="1208.0" y1="66" x2="1228.0" y2="66" stroke="#c96f73" stroke-width="2" stroke-dasharray="5,3"/>
<rect x="181.7" y="48" width="39.3" height="32" fill="#e3a6a0" stroke="#343a40" stroke-width="1.2"/>
<polygon points="253.5,58 325.5,58 340.5,66 325.5,74 253.5,74" fill="#717b85" stroke="#343a40" stroke-width="1"/>
<polygon points="343.6,66 358.6,58 461.5,58 461.5,74 358.6,74" fill="#717b85" stroke="#343a40" stroke-width="1"/>
<polygon points="471.9,58 520.9,58 535.9,66 520.9,74 471.9,74" fill="#717b85" stroke="#343a40" stroke-width="1"/>
<polygon points="1092.4,66 1107.4,58 1208.0,58 1208.0,74 1107.4,74" fill="#717b85" stroke="#343a40" stroke-width="1"/>
<line x1="124.6" y1="44" x2="124.6" y2="21" stroke="#343a40" stroke-width="1.5"/><polygon points="124.6,23 134.6,29 124.6,35" fill="#ffffff" stroke="#343a40" stroke-width="1.2"/>
<line x1="567.3" y1="44" x2="567.3" y2="21" stroke="#343a40" stroke-width="1.5"/><polygon points="567.3,23 557.3,29 567.3,35" fill="#ffffff" stroke="#343a40" stroke-width="1.2"/>
<line x1="221.2" y1="66" x2="253.4" y2="66" stroke="#c96f73" stroke-width="2" stroke-dasharray="6,4"/>
<text x="237.3" y="91.0" text-anchor="middle" font-size="9" font-weight="normal" font-style="normal" fill="#c96f73">329</text>
<line x1="461.6" y1="66" x2="471.8" y2="66" stroke="#c96f73" stroke-width="2" stroke-dasharray="6,4"/>
<text x="466.7" y="91.0" text-anchor="middle" font-size="9" font-weight="normal" font-style="normal" fill="#c96f73">105</text>
<line x1="536.0" y1="66" x2="563.6" y2="66" stroke="#c96f73" stroke-width="2" stroke-dasharray="6,4"/>
<text x="549.8" y="91.0" text-anchor="middle" font-size="9" font-weight="normal" font-style="normal" fill="#c96f73">282</text>
<line x1="716.4" y1="66" x2="1092.3" y2="66" stroke="#c96f73" stroke-width="2" stroke-dasharray="6,4"/>
<text x="904.3" y="91.0" text-anchor="middle" font-size="9" font-weight="normal" font-style="normal" fill="#c96f73">3823</text>
<g><title>expected 5 bp TSD; searched but not found</title><line x1="72.0" y1="44" x2="72.0" y2="18" stroke="#737b83" stroke-width="1.4"/><circle cx="72.0" cy="13" r="5" fill="#ffffff" stroke="#737b83" stroke-width="1.2"/></g>
<g><title>expected 5 bp TSD; searched but not found</title><line x1="128.2" y1="44" x2="128.2" y2="18" stroke="#737b83" stroke-width="1.4"/><circle cx="128.2" cy="13" r="5" fill="#ffffff" stroke="#737b83" stroke-width="1.2"/></g>
<g><title>expected 5 bp TSD; searched but not found</title><line x1="128.2" y1="44" x2="128.2" y2="18" stroke="#737b83" stroke-width="1.4"/><circle cx="128.2" cy="13" r="5" fill="#ffffff" stroke="#737b83" stroke-width="1.2"/></g>
<g><title>expected 5 bp TSD; searched but not found</title><line x1="201.4" y1="44" x2="201.4" y2="18" stroke="#737b83" stroke-width="1.4"/><circle cx="201.4" cy="13" r="5" fill="#ffffff" stroke="#737b83" stroke-width="1.2"/></g>
<g><title>expected 5 bp TSD; searched but not found</title><line x1="563.7" y1="44" x2="563.7" y2="18" stroke="#737b83" stroke-width="1.4"/><circle cx="563.7" cy="13" r="5" fill="#ffffff" stroke="#737b83" stroke-width="1.2"/></g>
<g><title>expected 5 bp TSD; searched but not found</title><line x1="716.3" y1="44" x2="716.3" y2="18" stroke="#737b83" stroke-width="1.4"/><circle cx="716.3" cy="13" r="5" fill="#ffffff" stroke="#737b83" stroke-width="1.2"/></g>
<text x="201.4" y="114.0" text-anchor="middle" font-size="8" font-weight="bold" font-style="normal" fill="#343a40">tet-to-tnp duplication junction</text>
<text x="297.0" y="102.0" text-anchor="middle" font-size="9" font-weight="bold" font-style="italic" fill="#343a40">pecM</text>
<text x="402.6" y="102.0" text-anchor="middle" font-size="9" font-weight="bold" font-style="italic" fill="#343a40">tet(A)</text>
<text x="503.9" y="102.0" text-anchor="middle" font-size="9" font-weight="bold" font-style="italic" fill="#343a40">tetR</text>
<text x="1150.2" y="102.0" text-anchor="middle" font-size="9" font-weight="bold" font-style="italic" fill="#343a40">tnpA</text>
<text x="1208.0" y="151.0" text-anchor="end" font-size="9" font-weight="normal" font-style="normal" fill="#555">EU935739.1 • Tn1722 fragment 54940..56492 • view 49940..61492</text>
<line x1="72" y1="164" x2="1208" y2="164" stroke="#d4d4d4" stroke-width="1"/><text x="72.0" y="182.0" text-anchor="start" font-size="10" font-weight="bold" font-style="normal" fill="#343a40">Key</text><line x1="115" y1="194" x2="145" y2="194" stroke="#717b85" stroke-width="6"/><polygon points="145,194 137,189 137,199" fill="#717b85"/><text x="154.0" y="197.0" text-anchor="start" font-size="9" font-weight="normal" font-style="normal" fill="#343a40">gene (arrow shows strand)</text><line x1="350" y1="201" x2="350" y2="185" stroke="#111" stroke-width="1.3"/><polygon points="350,187 360,193 350,199" fill="#fff" stroke="#111"/><text x="370.0" y="197.0" text-anchor="start" font-size="9" font-weight="normal" font-style="normal" fill="#343a40">terminal inverted repeat (IR)</text><line x1="590" y1="201" x2="590" y2="187" stroke="#111"/><circle cx="590" cy="186" r="5" fill="#9ca3aa" stroke="#111"/><text x="603.0" y="197.0" text-anchor="start" font-size="9" font-weight="normal" font-style="normal" fill="#343a40">sequence-matched DR/TSD</text><line x1="744" y1="201" x2="744" y2="187" stroke="#737b83"/><circle cx="744" cy="186" r="5" fill="#fff" stroke="#737b83"/><text x="757.0" y="197.0" text-anchor="start" font-size="9" font-weight="normal" font-style="normal" fill="#343a40">expected, unconfirmed DR/TSD</text><polygon points="996,185 1022,185 1032,194 1022,203 996,203" fill="#fff" stroke="#111"/><text x="1040.0" y="197.0" text-anchor="start" font-size="9" font-weight="normal" font-style="normal" fill="#343a40">insertion sequence (IS)</text><rect x="94" y="213" width="42" height="18" fill="#8fc7b5" stroke="#111"/><text x="145.0" y="225.0" text-anchor="start" font-size="9" font-weight="normal" font-style="normal" fill="#343a40">mobile element / transposon</text><rect x="350" y="213" width="42" height="18" fill="#a9d4e5" stroke="#111"/><text x="401.0" y="225.0" text-anchor="start" font-size="9" font-weight="normal" font-style="normal" fill="#343a40">gene cassette</text><rect x="520" y="213" width="42" height="18" fill="#f2be7e" stroke="#111"/><text x="571.0" y="225.0" text-anchor="start" font-size="9" font-weight="normal" font-style="normal" fill="#343a40">integron conserved segment</text><polygon points="770,213 800,213 806,219 800,225 806,231 770,231 764,225 770,219 764,213" fill="#f3c6a8" stroke="#343a40"/><text x="815.0" y="225.0" text-anchor="start" font-size="9" font-weight="normal" font-style="normal" fill="#343a40">inserted sequence</text><rect x="930" y="213" width="28" height="18" fill="#c9b8e8" stroke="#343a40"/><text x="967.0" y="225.0" text-anchor="start" font-size="9" font-weight="normal" font-style="normal" fill="#343a40">unresolved</text><line x1="1080" y1="222" x2="1120" y2="222" stroke="#c96f73" stroke-width="2" stroke-dasharray="6,4"/><text x="1129.0" y="225.0" text-anchor="start" font-size="9" font-weight="normal" font-style="normal" fill="#343a40">unannotated flank</text><line x1="115" y1="250" x2="145" y2="250" stroke="#717b85" stroke-width="6"/><polygon points="145,250 137,245 137,255" fill="#717b85"/><text x="154.0" y="253.0" text-anchor="start" font-size="9" font-weight="normal" font-style="normal" fill="#343a40">independently sequence-detected component</text><polygon points="350,243 380,243 390,250 380,257 350,257" fill="#e1e5e8" stroke="#343a40" stroke-dasharray="4,2"/><text x="400.0" y="253.0" text-anchor="start" font-size="9" font-weight="normal" font-style="normal" fill="#343a40">reference-projected component</text><text x="640.0" y="282.0" text-anchor="middle" font-size="9" font-weight="normal" font-style="normal" fill="#555555">Symbols are annotation calls; see the matching table Notes for sequence-detected versus reference-projected evidence.</text>
</svg>