<svg xmlns="http://www.w3.org/2000/svg" width="1400" height="166" style="background:#fff;font-family:monospace;">
<rect x="0" y="0" width="1400" height="166" fill="#ffffff"/>
<text x="700.00" y="28.00" font-size="15" font-family="monospace" text-anchor="middle" fill="#222" font-weight="bold">Tn5403_X75779</text>
<line x1="60" y1="40" x2="1360" y2="40" stroke="#bbb" stroke-width="1.5"/>
<line x1="60.00" y1="36" x2="60.00" y2="44" stroke="#bbb" stroke-width="1.5"/>
<text x="60.00" y="54.00" font-size="9" font-family="monospace" text-anchor="middle" fill="#888">0</text>
<line x1="319.79" y1="36" x2="319.79" y2="44" stroke="#bbb" stroke-width="1.5"/>
<text x="319.79" y="54.00" font-size="9" font-family="monospace" text-anchor="middle" fill="#888">0k</text>
<line x1="579.93" y1="36" x2="579.93" y2="44" stroke="#bbb" stroke-width="1.5"/>
<text x="579.93" y="54.00" font-size="9" font-family="monospace" text-anchor="middle" fill="#888">1k</text>
<line x1="839.72" y1="36" x2="839.72" y2="44" stroke="#bbb" stroke-width="1.5"/>
<text x="839.72" y="54.00" font-size="9" font-family="monospace" text-anchor="middle" fill="#888">2k</text>
<line x1="1099.86" y1="36" x2="1099.86" y2="44" stroke="#bbb" stroke-width="1.5"/>
<text x="1099.86" y="54.00" font-size="9" font-family="monospace" text-anchor="middle" fill="#888">2k</text>
<line x1="1360.00" y1="36" x2="1360.00" y2="44" stroke="#bbb" stroke-width="1.5"/>
<text x="1360.00" y="54.00" font-size="9" font-family="monospace" text-anchor="middle" fill="#888">3k</text>
<line x1="60" y1="70" x2="1360" y2="70" stroke="#ccc" stroke-width="3"/>
<rect x="60.00" y="136.00" width="14.00" height="14.00" fill="#4a90d9" stroke="none" stroke-width="1.5" rx="2" opacity="1.0"/>
<text x="78.00" y="147.00" font-size="10" font-family="monospace" text-anchor="start" fill="#444">IS element</text>
<rect x="180.00" y="136.00" width="14.00" height="14.00" fill="#e74c3c" stroke="none" stroke-width="1.5" rx="2" opacity="1.0"/>
<text x="198.00" y="147.00" font-size="10" font-family="monospace" text-anchor="start" fill="#444">AMR gene</text>
<rect x="300.00" y="136.00" width="14.00" height="14.00" fill="#27ae60" stroke="none" stroke-width="1.5" rx="2" opacity="1.0"/>
<text x="318.00" y="147.00" font-size="10" font-family="monospace" text-anchor="start" fill="#444">Transposon</text>
<rect x="420.00" y="136.00" width="14.00" height="14.00" fill="#8e44ad" stroke="none" stroke-width="1.5" rx="2" opacity="1.0"/>
<text x="438.00" y="147.00" font-size="10" font-family="monospace" text-anchor="start" fill="#444">Integron</text>
<rect x="540.00" y="136.00" width="14.00" height="14.00" fill="#f39c12" stroke="none" stroke-width="1.5" rx="2" opacity="1.0"/>
<text x="558.00" y="147.00" font-size="10" font-family="monospace" text-anchor="start" fill="#444">Cassette</text>
<rect x="660.00" y="136.00" width="14.00" height="14.00" fill="#7f8c8d" stroke="none" stroke-width="1.5" rx="2" opacity="1.0"/>
<text x="678.00" y="147.00" font-size="10" font-family="monospace" text-anchor="start" fill="#444">attC site</text>
<rect x="780.00" y="136.00" width="14.00" height="14.00" fill="#f1c40f" stroke="none" stroke-width="1.5" rx="2" opacity="1.0"/>
<text x="798.00" y="147.00" font-size="10" font-family="monospace" text-anchor="start" fill="#444">TSD</text>
</svg>