<svg xmlns="http://www.w3.org/2000/svg" width="1280" height="420" style="background:#fff;font-family:Arial,Helvetica,sans-serif">
<rect x="0" y="0" width="1280" height="420" fill="#fff"/>
<text x="18.0" y="23.0" font-size="14" font-weight="bold" text-anchor="start" fill="#171717">arbitrary_demo_contig • Tn2-like 19950..25699 • view 14950..30699</text>
<rect x="18" y="34" width="1244" height="30" fill="#eeeeec" stroke="#c9c9c6"/>
<text x="26.0" y="54.0" font-size="11" font-weight="bold" text-anchor="start" fill="#171717">Position</text>
<text x="178.0" y="54.0" font-size="11" font-weight="bold" text-anchor="start" fill="#171717">Name*</text>
<text x="528.0" y="54.0" font-size="11" font-weight="bold" text-anchor="start" fill="#171717">FID</text>
<text x="658.0" y="54.0" font-size="11" font-weight="bold" text-anchor="start" fill="#171717">Type</text>
<text x="768.0" y="54.0" font-size="11" font-weight="bold" text-anchor="start" fill="#171717">Notes</text>
<rect x="18" y="64" width="1244" height="68" fill="#e8e8e5" stroke="#ddddda" stroke-width="0.7"/>
<text x="26.0" y="82.0" font-size="10" font-weight="normal" text-anchor="start" fill="#171717">19950..25699</text>
<text x="178.0" y="82.0" font-size="10" font-weight="bold" text-anchor="start" fill="#171717">Tn2-like</text>
<line x1="238.0" y1="79.0" x2="272.0" y2="79.0" stroke="#000" stroke-width="6"/><polygon points="272.0,79.0 264.0,74.0 264.0,84.0" fill="#000000" stroke="#000"/>
<text x="528.0" y="82.0" font-size="10" font-weight="normal" text-anchor="start" fill="#171717">AY123253</text>
<text x="658.0" y="82.0" font-size="10" font-weight="normal" text-anchor="start" fill="#171717">Tn</text>
<text x="768.0" y="82.0" font-size="10" font-weight="normal" text-anchor="start" fill="#171717">BLAST identity=100%; reference coverage=100%; closest definition=Tn2;</text>
<text x="768.0" y="96.0" font-size="10" font-weight="normal" text-anchor="start" fill="#171717">minor sequence variant; complete with insertion; inserted sequence≈799</text>
<text x="768.0" y="110.0" font-size="10" font-weight="normal" text-anchor="start" fill="#171717">bp; component grammar=complete; 6 independently sequence-detected</text>
<text x="768.0" y="124.0" font-size="10" font-weight="normal" text-anchor="start" fill="#171717">components; expected DR=5 bp; searched but not found</text>
<rect x="18" y="132" width="1244" height="40" fill="#ffffff" stroke="#ddddda" stroke-width="0.7"/>
<text x="26.0" y="150.0" font-size="10" font-weight="normal" text-anchor="start" fill="#171717">19950..19987</text>
<text x="198.0" y="150.0" font-size="10" font-weight="normal" text-anchor="start" fill="#171717">IRL</text>
<polygon points="228.0,141.0 238.0,147.0 228.0,153.0" fill="#fff" stroke="#111" stroke-width="1.2"/>
<text x="528.0" y="150.0" font-size="10" font-weight="normal" text-anchor="start" fill="#171717"></text>
<text x="658.0" y="150.0" font-size="10" font-weight="normal" text-anchor="start" fill="#171717">IR</text>
<text x="768.0" y="150.0" font-size="10" font-weight="normal" text-anchor="start" fill="#171717">independently sequence-detected terminal_IR; identity=100.0%;</text>
<text x="768.0" y="164.0" font-size="10" font-weight="normal" text-anchor="start" fill="#171717">coverage=100.0%</text>
<rect x="18" y="172" width="1244" height="28" fill="#f2f1ef" stroke="#ddddda" stroke-width="0.7"/>
<text x="26.0" y="190.0" font-size="10" font-weight="normal" text-anchor="start" fill="#171717">20097..20957</text>
<text x="198.0" y="190.0" font-size="10" font-weight="normal" text-anchor="start" fill="#171717">blaTEM-1b</text>
<line x1="298.0" y1="187.0" x2="264.0" y2="187.0" stroke="#000" stroke-width="6"/><polygon points="264.0,187.0 272.0,182.0 272.0,192.0" fill="#000000" stroke="#000"/>
<text x="528.0" y="190.0" font-size="10" font-weight="normal" text-anchor="start" fill="#171717"></text>
<text x="658.0" y="190.0" font-size="10" font-weight="normal" text-anchor="start" fill="#171717">R_gene</text>
<text x="768.0" y="190.0" font-size="10" font-weight="normal" text-anchor="start" fill="#171717">independently sequence-detected blaTEM; identity=100.0%; coverage=100.0%</text>
<rect x="18" y="200" width="1244" height="28" fill="#ffffff" stroke="#ddddda" stroke-width="0.7"/>
<text x="26.0" y="218.0" font-size="10" font-weight="normal" text-anchor="start" fill="#171717">21140..21697</text>
<text x="198.0" y="218.0" font-size="10" font-weight="normal" text-anchor="start" fill="#171717">tnpR</text>
<line x1="268.0" y1="215.0" x2="234.0" y2="215.0" stroke="#000" stroke-width="6"/><polygon points="234.0,215.0 242.0,210.0 242.0,220.0" fill="#000000" stroke="#000"/>
<text x="528.0" y="218.0" font-size="10" font-weight="normal" text-anchor="start" fill="#171717"></text>
<text x="658.0" y="218.0" font-size="10" font-weight="normal" text-anchor="start" fill="#171717">gene</text>
<text x="768.0" y="218.0" font-size="10" font-weight="normal" text-anchor="start" fill="#171717">independently sequence-detected tnpR; identity=100.0%; coverage=100.0%</text>
<rect x="18" y="228" width="1244" height="28" fill="#f2f1ef" stroke="#ddddda" stroke-width="0.7"/>
<text x="26.0" y="246.0" font-size="10" font-weight="normal" text-anchor="start" fill="#171717">21703..21816</text>
<text x="198.0" y="246.0" font-size="10" font-weight="normal" text-anchor="start" fill="#171717">res</text>

<text x="528.0" y="246.0" font-size="10" font-weight="normal" text-anchor="start" fill="#171717"></text>
<text x="658.0" y="246.0" font-size="10" font-weight="normal" text-anchor="start" fill="#171717">res</text>
<text x="768.0" y="246.0" font-size="10" font-weight="normal" text-anchor="start" fill="#171717">independently sequence-detected res; identity=100.0%; coverage=100.0%</text>
<rect x="18" y="256" width="1244" height="40" fill="#ffffff" stroke="#ddddda" stroke-width="0.7"/>
<text x="26.0" y="274.0" font-size="10" font-weight="normal" text-anchor="start" fill="#171717">21860..25666</text>
<text x="198.0" y="274.0" font-size="10" font-weight="normal" text-anchor="start" fill="#171717">tnpA</text>
<line x1="234.0" y1="271.0" x2="268.0" y2="271.0" stroke="#000" stroke-width="6"/><polygon points="268.0,271.0 260.0,266.0 260.0,276.0" fill="#000000" stroke="#000"/>
<text x="528.0" y="274.0" font-size="10" font-weight="normal" text-anchor="start" fill="#171717"></text>
<text x="658.0" y="274.0" font-size="10" font-weight="normal" text-anchor="start" fill="#171717">gene</text>
<text x="768.0" y="274.0" font-size="10" font-weight="normal" text-anchor="start" fill="#171717">independently sequence-detected tnpA; identity=100.0%; coverage=100.0%;</text>
<text x="768.0" y="288.0" font-size="10" font-weight="normal" text-anchor="start" fill="#171717">complete with insertion</text>
<rect x="18" y="296" width="1244" height="28" fill="#f2f1ef" stroke="#ddddda" stroke-width="0.7"/>
<text x="26.0" y="314.0" font-size="10" font-weight="normal" text-anchor="start" fill="#171717">22451..23249</text>
<text x="218.0" y="314.0" font-size="10" font-weight="normal" text-anchor="start" fill="#171717">inserted sequence 1</text>

<text x="528.0" y="314.0" font-size="10" font-weight="normal" text-anchor="start" fill="#171717"></text>
<text x="658.0" y="314.0" font-size="10" font-weight="normal" text-anchor="start" fill="#171717">inserted</text>
<text x="768.0" y="314.0" font-size="10" font-weight="normal" text-anchor="start" fill="#171717">unclassified insertion; estimated inserted sequence=799 bp</text>
<rect x="18" y="324" width="1244" height="40" fill="#ffffff" stroke="#ddddda" stroke-width="0.7"/>
<text x="26.0" y="342.0" font-size="10" font-weight="normal" text-anchor="start" fill="#171717">25662..25699</text>
<text x="198.0" y="342.0" font-size="10" font-weight="normal" text-anchor="start" fill="#171717">IRR</text>
<polygon points="228.0,333.0 218.0,339.0 228.0,345.0" fill="#fff" stroke="#111" stroke-width="1.2"/>
<text x="528.0" y="342.0" font-size="10" font-weight="normal" text-anchor="start" fill="#171717"></text>
<text x="658.0" y="342.0" font-size="10" font-weight="normal" text-anchor="start" fill="#171717">IR</text>
<text x="768.0" y="342.0" font-size="10" font-weight="normal" text-anchor="start" fill="#171717">independently sequence-detected terminal_IR; identity=100.0%;</text>
<text x="768.0" y="356.0" font-size="10" font-weight="normal" text-anchor="start" fill="#171717">coverage=100.0%</text>
<line x1="18" y1="34" x2="18" y2="364" stroke="#d2d2cf" stroke-width="0.8"/>
<line x1="170" y1="34" x2="170" y2="364" stroke="#d2d2cf" stroke-width="0.8"/>
<line x1="520" y1="34" x2="520" y2="364" stroke="#d2d2cf" stroke-width="0.8"/>
<line x1="650" y1="34" x2="650" y2="364" stroke="#d2d2cf" stroke-width="0.8"/>
<line x1="760" y1="34" x2="760" y2="364" stroke="#d2d2cf" stroke-width="0.8"/>
<line x1="1262" y1="34" x2="1262" y2="364" stroke="#d2d2cf" stroke-width="0.8"/>
<text x="18.0" y="387.0" font-size="10" font-weight="bold" text-anchor="start" fill="#171717">Key:</text>
<line x1="62.0" y1="384.0" x2="96.0" y2="384.0" stroke="#000" stroke-width="6"/><polygon points="96.0,384.0 88.0,379.0 88.0,389.0" fill="#000000" stroke="#000"/>
<text x="105.0" y="387.0" font-size="10" font-weight="normal" text-anchor="start" fill="#171717">strand</text>
<polygon points="180.0,378.0 190.0,384.0 180.0,390.0" fill="#fff" stroke="#111" stroke-width="1.2"/>
<text x="198.0" y="387.0" font-size="10" font-weight="normal" text-anchor="start" fill="#171717">terminal inverted repeat (IR)</text>
<circle cx="430" cy="382" r="5" fill="#9ca3aa" stroke="#111"/>
<text x="443.0" y="387.0" font-size="10" font-weight="normal" text-anchor="start" fill="#171717">sequence-matched DR/TSD</text>
<circle cx="590" cy="382" r="5" fill="#fff" stroke="#737b83"/>
<text x="603.0" y="387.0" font-size="10" font-weight="normal" text-anchor="start" fill="#171717">expected, unconfirmed DR/TSD</text>
<text x="850.0" y="387.0" font-size="10" font-weight="normal" text-anchor="start" fill="#555555">Solid components are sequence-detected; dashed/outlined components are reference-projected.</text>
</svg>